<?xml version="1.0" encoding="utf-8"?>
<!-- Generator: Adobe Illustrator 16.0.0, SVG Export Plug-In . SVG Version: 6.00 Build 0)  -->
<!DOCTYPE svg PUBLIC "-//W3C//DTD SVG 1.1//EN" "http://www.w3.org/Graphics/SVG/1.1/DTD/svg11.dtd">
<svg version="1.1" id="Layer_1" xmlns="http://www.w3.org/2000/svg" xmlns:xlink="http://www.w3.org/1999/xlink" x="0px" y="0px"
	 width="1000px" height="1000px" viewBox="0 0 1000 1000" enable-background="new 0 0 1000 1000" xml:space="preserve">
<g>
	
		<image overflow="visible" opacity="0.54" width="951" height="993" xlink:href="D86395ABBB1B089B.png"  transform="matrix(1 0 0 1 52.5 12.5)">
	</image>
	<g>
		<g>
			<path fill-rule="evenodd" clip-rule="evenodd" fill="#FAB400" d="M513.232,23.167c36.228,9.203,66.424,26.799,83.475,61.698
				c37.518,76.792-18.302,161.787-104.169,158.898c-3.261-5.732-2.787-12.039-2.75-18.259c0.333-57.544-0.037-115.089,0.215-172.629
				c0.045-10.301-1.045-21.01,6.565-29.708C502.124,23.167,507.677,23.167,513.232,23.167z"/>
			<path fill-rule="evenodd" clip-rule="evenodd" fill="#FECD47" d="M496.568,23.167c0.053,66.219,0.073,132.441,0.209,198.659
				c0.016,7.653,0.065,15.184-4.24,21.938c-49.35,0.065-91.542-35.689-103.422-87.643c2.26-15.004,1.782-30.021,0.22-45.042
				c9.889-47.894,43.152-72.81,86.402-87.912C482.68,23.167,489.625,23.167,496.568,23.167z"/>
			<path fill-rule="evenodd" clip-rule="evenodd" fill="#FE959E" d="M438.302,959.92c-29.741,0.203-59.493-0.029-89.213,0.825
				c-12.065,0.351-15.481-4.271-15.171-15.704c0.651-24.195,0.142-48.423,0.22-72.639c0.026-7.762,0.354-14.153-10.07-17.079
				c-90.116-25.294-150.732-83.351-185.823-169.248c-23.481-4.735-47.038-3.32-70.604-0.847c-6.056-3.755-3.885-9.857-3.899-15.032
				c-0.157-51.165,0.405-102.339-0.409-153.487c-0.234-14.765,4.699-20.75,18.908-18.186c38.986,7.03,63.057-5.082,80.161-44.468
				c18.642-42.931,56.768-72.265,96.238-97.635c4.801-36.018,3.295-72.077,0.724-108.144c36.756-4.756,71.164,17.616,91.388,50.941
				c4.231,6.973,8.843,14.142,8.438,22.971c10.171,6.525,21.496,3.022,32.094,2.791c33.774-0.737,67.671,3.401,101.327-2.201
				c1.296-0.423,2.578-0.387,3.845,0.114c9.177,13.609,8.129,27.54,1.343,41.653c-9.284,8.186-20.773,5.842-31.641,6.555
				c-25.379,1.672-51.076-3.67-76.084,3.539c-5.714,14.269-10.828,28.386,3.48,40.86c25.235,2.669,50.458,0.33,75.619,1.245
				c10.076,0.366,20.678-1.017,28.959,7.034c5,7.311,5.089,15.725,5.102,24.024c0.207,130.26,0.191,260.52,0,390.785
				c-0.013,8.938,0.423,18.198-6.44,25.505c-17.779,0.248-35.557,0.496-53.336,0.749c-6.902,17.055-1.613,34.854-3.153,52.243
				C439.04,931.326,442.543,945.806,438.302,959.92z"/>
			<path fill-rule="evenodd" clip-rule="evenodd" fill="#FE717D" d="M496.792,864.091c-0.189-146.876-0.378-293.747-0.568-440.623
				c0.869-0.903,1.739-1.807,2.598-2.726c22.094-6.949,44.798-2.111,67.194-3.348c14.333-0.79,28.738,0.63,43.002-0.891
				c9.917-13.731,9.864-32.125-0.276-45.29c-28.681-1.428-57.311-0.151-85.927-0.663c-8.104-0.143-16.44,0.968-23.989-3.353
				c-0.867-0.903-1.723-1.823-2.582-2.738c0.071-13.857,0.141-27.71,0.211-41.563c1.418,0.061,2.836,0.122,4.256,0.188
				c44.317,4.235,88.677,2.457,133.032,0.883C743.762,334.396,848.11,428.631,866.438,540.11
				c-0.689,5.306-3.928,10.843,1.412,15.606c1.377,2.775,2.756,5.55,4.134,8.329c9.382,16.978,6.003,34.854,3.732,52.666
				c-1.103,2.344-2.481,4.524-4.113,6.542c-10.845,69.2-39.59,128.934-93.508,175.025c-34.069,29.118-72.177,50.547-116.984,58.325
				c-8.084,4.667-3.685,12.353-4.03,18.564c-1.562,28.199,2.177,56.54-2.154,84.689c-31.962-0.004-63.924-0.004-95.886-0.008
				c-4.685-29.924-0.5-59.799-1.861-83.632c-2.662,23.524,2.74,53.651-2.262,83.233c-8.247-20.925-1.705-42.679-3.515-63.978
				c-0.863-10.167-0.497-20.436-0.686-30.659c-16.519-4.187-33.132-2.531-49.745-0.806
				C499.579,864.038,498.186,864.062,496.792,864.091z"/>
			<path fill-rule="evenodd" clip-rule="evenodd" fill="#FE969F" d="M871.652,618.872c0.109-18.275,0.22-36.551,0.332-54.826
				c1.244,0.044,2.459,0.256,3.646,0.626c26.34,3.849,52.699,3.287,79.069,0.354c5.889,19.101,6.548,38.178-0.299,57.21
				C926.942,618.046,899.06,624.3,871.652,618.872z"/>
			<path fill-rule="evenodd" clip-rule="evenodd" fill="#FE6875" d="M633.744,323.965c-44.378,4.918-88.736,6.64-133.032-0.883
				C545.064,322.15,589.419,320.975,633.744,323.965z"/>
			<path fill-rule="evenodd" clip-rule="evenodd" fill="#FE8E98" d="M492.609,322.777c-3.879,5.387-9.675,4.487-15.114,4.491
				c-34.554,0.041-69.107,0.053-103.661-0.012c-5.389-0.008-11.308,1.082-14.646-5.065
				C403.661,322.383,448.135,322.582,492.609,322.777z"/>
			<path fill-rule="evenodd" clip-rule="evenodd" fill="#FE8E98" d="M259.362,248.275c5.804,36.087,7.531,72.15-0.722,108.144
				C258.88,320.373,259.12,284.322,259.362,248.275z"/>
			<path fill-rule="evenodd" clip-rule="evenodd" fill="#FE6976" d="M654.927,959.858c-0.016-28.41-0.177-56.824,0.065-85.234
				c0.055-6.444-2.716-14.337,6.111-18.02c-0.503,28.301-0.768,56.613-1.72,84.897C659.177,947.67,663.433,955.505,654.927,959.858z
				"/>
			<path fill-rule="evenodd" clip-rule="evenodd" fill="#FE6D7A" d="M554.918,959.452c0-30.107,0-60.214,0-90.32
				c1.375,0.004,2.748,0.008,4.123,0.012c0,30.237,0,60.474,0,90.711C557.666,959.721,556.293,959.586,554.918,959.452z"/>
			<path fill-rule="evenodd" clip-rule="evenodd" fill="#FE8E98" d="M438.302,959.92c-0.021-25.481-0.2-50.962,0.053-76.438
				c0.065-6.478-2.634-14.098,5.096-18.642c-0.222,25.473-0.193,50.957-0.862,76.418
				C442.423,947.535,446.198,955.236,438.302,959.92z"/>
			<path fill-rule="evenodd" clip-rule="evenodd" fill="#FE8D96" d="M871.652,618.872c27.541,2.145,55.429-4.134,82.751,3.369
				c-27.601,0.337-55.199,0.675-82.8,1.013C871.62,621.793,871.636,620.333,871.652,618.872z"/>
			<path fill-rule="evenodd" clip-rule="evenodd" fill="#FE8E98" d="M954.7,565.026c-26.384,6.078-52.744,6.721-79.069-0.354
				C901.987,564.79,928.343,564.908,954.7,565.026z"/>
			<path fill-rule="evenodd" clip-rule="evenodd" fill="#FE8E98" d="M67.64,685.229c23.604-5.509,47.164-7.416,70.604,0.843
				C114.708,685.794,91.174,685.51,67.64,685.229z"/>
			<path fill-rule="evenodd" clip-rule="evenodd" fill="#FE6D7A" d="M500.973,864.01c16.67-5.151,33.273-6.318,49.745,0.806
				C534.137,864.547,517.553,864.278,500.973,864.01z"/>
			<path fill-rule="evenodd" clip-rule="evenodd" fill="#FECB37" d="M389.335,111.079c4.819,15.037,5.137,30.054-0.22,45.042
				C386.697,141.092,386.671,126.079,389.335,111.079z"/>
			<path fill-rule="evenodd" clip-rule="evenodd" fill="#FE6976" d="M867.851,555.717c-7.969-4.523-5.31-10.008-1.412-15.606
				C866.908,545.314,867.381,550.514,867.851,555.717z"/>
			<path fill-rule="evenodd" clip-rule="evenodd" fill="#FE717D" d="M496.224,423.468c-37.391-0.183-74.782-0.366-112.173-0.545
				c-5.751-17.645,1.849-36.303-4.083-53.932c11.084-8.596,23.874-3.527,35.792-3.938c26.805-0.924,53.657-0.476,80.488-0.594
				c-0.004,0,0.895,0.903,0.895,0.903c8.05,19.073,8.08,38.142-0.028,57.207L496.224,423.468z"/>
			<path fill-rule="evenodd" clip-rule="evenodd" fill="#E11C4E" d="M257.353,471.679c12.041-1.225,29.588,12.625,31.003,24.472
				c2.02,16.896-11.471,33.503-28.235,34.757c-14.936,1.118-32.554-14.598-33.815-30.16
				C224.986,484.438,236.331,473.815,257.353,471.679z"/>
			<path fill-rule="evenodd" clip-rule="evenodd" fill="#FE6D7A" d="M379.968,368.991c9.014,17.397,1.816,36.026,4.083,53.932
				C374.837,405.538,382.143,386.904,379.968,368.991z"/>
			<path fill-rule="evenodd" clip-rule="evenodd" fill="#E52954" d="M497.115,422.568c0.006-19.073,0.014-38.142,0.024-57.21
				c39.948-0.175,79.895-0.354,119.839-0.533c4.003,19.419,4.001,38.833,0,58.252C577.024,422.906,537.069,422.739,497.115,422.568z
				"/>
			<path fill-rule="evenodd" clip-rule="evenodd" fill="#FE757F" d="M616.979,423.077c0.004-19.419,0.006-38.833,0.004-58.252
				C624.383,384.244,624.383,403.658,616.979,423.077z"/>
			<path fill-rule="evenodd" clip-rule="evenodd" fill="#E11B4E" d="M555.117,418.932c-10.364,0.02-20.892-1.152-31.057,0.268
				c-20.12,2.812-23.283-6.477-24.028-24.488c-0.883-21.392,5.721-28.003,26.712-26.173c21.258,1.855,42.908,1.733,64.188,0.017
				c19.21-1.546,24.897,6.106,22.375,23.642c-0.682,4.74-0.321,9.667-0.114,14.492c0.383,8.833-3.822,12.421-12.476,12.287
				C585.521,418.732,570.317,418.907,555.117,418.932z"/>
		</g>
	</g>
</g>
</svg>
