<?xml version="1.0" encoding="utf-8"?>
<!-- Generator: Adobe Illustrator 16.0.0, SVG Export Plug-In . SVG Version: 6.00 Build 0)  -->
<!DOCTYPE svg PUBLIC "-//W3C//DTD SVG 1.1//EN" "http://www.w3.org/Graphics/SVG/1.1/DTD/svg11.dtd">
<svg version="1.1" id="Layer_1" xmlns="http://www.w3.org/2000/svg" xmlns:xlink="http://www.w3.org/1999/xlink" x="0px" y="0px"
	 width="100px" height="100px" viewBox="0 0 100 100" enable-background="new 0 0 100 100" xml:space="preserve">
<path fill="#FFFFFF" d="M92.578,22.266H7.422c-0.647,0-1.172-0.524-1.172-1.172v-4.688c0-0.647,0.525-1.172,1.172-1.172h85.156
	c0.647,0,1.172,0.524,1.172,1.172v4.688C93.75,21.741,93.226,22.266,92.578,22.266z M92.578,53.516H7.422
	c-0.647,0-1.172-0.524-1.172-1.172v-4.688c0-0.647,0.525-1.172,1.172-1.172l0,0h85.156c0.647,0,1.172,0.524,1.172,1.172l0,0v4.688
	C93.75,52.991,93.226,53.516,92.578,53.516z M92.578,84.766H7.422c-0.647,0-1.172-0.524-1.172-1.172v-4.688
	c0-0.647,0.525-1.172,1.172-1.172h85.156c0.647,0,1.172,0.524,1.172,1.172v4.688C93.75,84.241,93.226,84.766,92.578,84.766z"/>
</svg>
