<svg xmlns="http://www.w3.org/2000/svg" xmlns:xlink="http://www.w3.org/1999/xlink" width="1000" height="1000"><image overflow="visible" opacity=".54" width="951" height="993" xlink:href="D86395ABBB1B089B.png" transform="translate(52.5 12.5)"/><g fill-rule="evenodd" clip-rule="evenodd"><path fill="#FAB400" d="M513.232 23.167c36.228 9.203 66.424 26.799 83.475 61.698 37.518 76.792-18.302 161.787-104.169 158.898-3.261-5.732-2.787-12.039-2.75-18.259.333-57.544-.037-115.089.215-172.629.045-10.301-1.045-21.01 6.565-29.708h16.664z"/><path fill="#FECD47" d="M496.568 23.167c.053 66.219.073 132.441.209 198.659.016 7.653.065 15.184-4.24 21.938-49.35.065-91.542-35.689-103.422-87.643 2.26-15.004 1.782-30.021.22-45.042 9.889-47.894 43.152-72.81 86.402-87.912h20.831z"/><path fill="#FE959E" d="M438.302 959.92c-29.741.203-59.493-.029-89.213.825-12.065.351-15.481-4.271-15.171-15.704.651-24.195.142-48.423.22-72.639.026-7.762.354-14.153-10.07-17.079-90.116-25.294-150.732-83.351-185.823-169.248-23.481-4.735-47.038-3.32-70.604-.847-6.056-3.755-3.885-9.857-3.899-15.032-.157-51.165.405-102.339-.409-153.487-.234-14.765 4.699-20.75 18.908-18.186 38.986 7.03 63.057-5.082 80.161-44.468 18.642-42.931 56.768-72.265 96.238-97.635 4.801-36.018 3.295-72.077.724-108.144 36.756-4.756 71.164 17.616 91.388 50.941 4.231 6.973 8.843 14.142 8.438 22.971 10.171 6.525 21.496 3.022 32.094 2.791 33.774-.737 67.671 3.401 101.327-2.201a5.509 5.509 0 0 1 3.845.114c9.177 13.609 8.129 27.54 1.343 41.653-9.284 8.186-20.773 5.842-31.641 6.555-25.379 1.672-51.076-3.67-76.084 3.539-5.714 14.269-10.828 28.386 3.48 40.86 25.235 2.669 50.458.33 75.619 1.245 10.076.366 20.678-1.017 28.959 7.034 5 7.311 5.089 15.725 5.102 24.024.207 130.26.191 260.52 0 390.785-.013 8.938.423 18.198-6.44 25.505-17.779.248-35.557.496-53.336.749-6.902 17.055-1.613 34.854-3.153 52.243-1.265 14.242 2.238 28.722-2.003 42.836z"/><path fill="#FE717D" d="M496.792 864.091l-.568-440.623c.869-.903 1.739-1.807 2.598-2.726 22.094-6.949 44.798-2.111 67.194-3.348 14.333-.79 28.738.63 43.002-.891 9.917-13.731 9.864-32.125-.276-45.29-28.681-1.428-57.311-.151-85.927-.663-8.104-.143-16.44.968-23.989-3.353-.867-.903-1.723-1.823-2.582-2.738l.211-41.563c1.418.061 2.836.122 4.256.188 44.317 4.235 88.677 2.457 133.032.883C743.762 334.396 848.11 428.631 866.438 540.11c-.689 5.306-3.928 10.843 1.412 15.606 1.377 2.775 2.756 5.55 4.134 8.329 9.382 16.978 6.003 34.854 3.732 52.666a32.15 32.15 0 0 1-4.113 6.542c-10.845 69.2-39.59 128.934-93.508 175.025-34.069 29.118-72.177 50.547-116.984 58.325-8.084 4.667-3.685 12.353-4.03 18.564-1.562 28.199 2.177 56.54-2.154 84.689-31.962-.004-63.924-.004-95.886-.008-4.685-29.924-.5-59.799-1.861-83.632-2.662 23.524 2.74 53.651-2.262 83.233-8.247-20.925-1.705-42.679-3.515-63.978-.863-10.167-.497-20.436-.686-30.659-16.519-4.187-33.132-2.531-49.745-.806-1.393.032-2.786.056-4.18.085z"/><path fill="#FE969F" d="M871.652 618.872c.109-18.275.22-36.551.332-54.826 1.244.044 2.459.256 3.646.626 26.34 3.849 52.699 3.287 79.069.354 5.889 19.101 6.548 38.178-.299 57.21-27.458-4.19-55.34 2.064-82.748-3.364z"/><path fill="#FE6875" d="M633.744 323.965c-44.378 4.918-88.736 6.64-133.032-.883 44.352-.932 88.707-2.107 133.032.883z"/><path fill="#FE8E98" d="M492.609 322.777c-3.879 5.387-9.675 4.487-15.114 4.491-34.554.041-69.107.053-103.661-.012-5.389-.008-11.308 1.082-14.646-5.065 44.473.192 88.947.391 133.421.586zm-233.247-74.502c5.804 36.087 7.531 72.15-.722 108.144.24-36.046.48-72.097.722-108.144z"/><path fill="#FE6976" d="M654.927 959.858c-.016-28.41-.177-56.824.065-85.234.055-6.444-2.716-14.337 6.111-18.02-.503 28.301-.768 56.613-1.72 84.897-.206 6.169 4.05 14.004-4.456 18.357z"/><path fill="#FE6D7A" d="M554.918 959.452v-90.32l4.123.012v90.711l-4.123-.403z"/><path fill="#FE8E98" d="M438.302 959.92c-.021-25.481-.2-50.962.053-76.438.065-6.478-2.634-14.098 5.096-18.642-.222 25.473-.193 50.957-.862 76.418-.166 6.277 3.609 13.978-4.287 18.662z"/><path fill="#FE8D96" d="M871.652 618.872c27.541 2.145 55.429-4.134 82.751 3.369l-82.8 1.013.049-4.382z"/><path fill="#FE8E98" d="M954.7 565.026c-26.384 6.078-52.744 6.721-79.069-.354l79.069.354zM67.64 685.229c23.604-5.509 47.164-7.416 70.604.843-23.536-.278-47.07-.562-70.604-.843z"/><path fill="#FE6D7A" d="M500.973 864.01c16.67-5.151 33.273-6.318 49.745.806l-49.745-.806z"/><path fill="#FECB37" d="M389.335 111.079c4.819 15.037 5.137 30.054-.22 45.042-2.418-15.029-2.444-30.042.22-45.042z"/><path fill="#FE6976" d="M867.851 555.717c-7.969-4.523-5.31-10.008-1.412-15.606.469 5.203.942 10.403 1.412 15.606z"/><path fill="#FE717D" d="M496.224 423.468c-37.391-.183-74.782-.366-112.173-.545-5.751-17.645 1.849-36.303-4.083-53.932 11.084-8.596 23.874-3.527 35.792-3.938 26.805-.924 53.657-.476 80.488-.594-.004 0 .895.903.895.903 8.05 19.073 8.08 38.142-.028 57.207l-.891.899z"/><path fill="#E11C4E" d="M257.353 471.679c12.041-1.225 29.588 12.625 31.003 24.472 2.02 16.896-11.471 33.503-28.235 34.757-14.936 1.118-32.554-14.598-33.815-30.16-1.32-16.31 10.025-26.933 31.047-29.069z"/><path fill="#FE6D7A" d="M379.968 368.991c9.014 17.397 1.816 36.026 4.083 53.932-9.214-17.385-1.908-36.019-4.083-53.932z"/><path fill="#E52954" d="M497.115 422.568c.006-19.073.014-38.142.024-57.21 39.948-.175 79.895-.354 119.839-.533 4.003 19.419 4.001 38.833 0 58.252-39.954-.171-79.909-.338-119.863-.509z"/><path fill="#FE757F" d="M616.979 423.077c.004-19.419.006-38.833.004-58.252 7.4 19.419 7.4 38.833-.004 58.252z"/><path fill="#E11B4E" d="M555.117 418.932c-10.364.02-20.892-1.152-31.057.268-20.12 2.812-23.283-6.477-24.028-24.488-.883-21.392 5.721-28.003 26.712-26.173 21.258 1.855 42.908 1.733 64.188.017 19.21-1.546 24.897 6.106 22.375 23.642-.682 4.74-.321 9.667-.114 14.492.383 8.833-3.822 12.421-12.476 12.287-15.196-.245-30.4-.07-45.6-.045z"/></g></svg>